{
  "accessors": [
    {
      "name": "Cylinder-Mesh_0_positions",
      "componentType": 5126,
      "count": 608,
      "min": [
        -10.156878471374512,
        -16,
        -17
      ],
      "max": [
        9.5,
        -2,
        -3
      ],
      "type": "VEC3",
      "bufferView": 0,
      "byteOffset": 0
    },
    {
      "name": "Cylinder-Mesh_0_normals",
      "componentType": 5126,
      "count": 608,
      "min": [
        -1,
        -0.9951865673065186,
        -0.9951865673065186
      ],
      "max": [
        1,
        0.9951865673065186,
        0.9951865673065186
      ],
      "type": "VEC3",
      "bufferView": 1,
      "byteOffset": 0
    },
    {
      "name": "Cylinder-Mesh_0_texcoords",
      "componentType": 5126,
      "count": 608,
      "min": [
        0,
        0
      ],
      "max": [
        1,
        0.9900000095367432
      ],
      "type": "VEC2",
      "bufferView": 2,
      "byteOffset": 0
    },
    {
      "name": "Cylinder-Mesh_0_indices",
      "componentType": 5123,
      "count": 1332,
      "min": [
        0
      ],
      "max": [
        607
      ],
      "type": "SCALAR",
      "bufferView": 3,
      "byteOffset": 0
    },
    {
      "name": "Cylinder.001-Mesh_0_positions",
      "componentType": 5126,
      "count": 192,
      "min": [
        -9.5,
        -16,
        5
      ],
      "max": [
        -6.5,
        -2,
        19
      ],
      "type": "VEC3",
      "bufferView": 0,
      "byteOffset": 7296
    },
    {
      "name": "Cylinder.001-Mesh_0_normals",
      "componentType": 5126,
      "count": 192,
      "min": [
        -1,
        -0.9951865673065186,
        -0.9951865673065186
      ],
      "max": [
        1,
        0.9951865673065186,
        0.9951865673065186
      ],
      "type": "VEC3",
      "bufferView": 1,
      "byteOffset": 7296
    },
    {
      "name": "Cylinder.001-Mesh_0_texcoords",
      "componentType": 5126,
      "count": 192,
      "min": [
        0,
        0
      ],
      "max": [
        1,
        0.9900000095367432
      ],
      "type": "VEC2",
      "bufferView": 2,
      "byteOffset": 4864
    },
    {
      "name": "Cylinder.001-Mesh_0_indices",
      "componentType": 5123,
      "count": 372,
      "min": [
        0
      ],
      "max": [
        191
      ],
      "type": "SCALAR",
      "bufferView": 3,
      "byteOffset": 2664
    },
    {
      "name": "robot_base-Mesh_0_positions",
      "componentType": 5126,
      "count": 302,
      "min": [
        -8.75,
        -12.600000381469727,
        -14
      ],
      "max": [
        8.75,
        5.25,
        14
      ],
      "type": "VEC3",
      "bufferView": 0,
      "byteOffset": 9600
    },
    {
      "name": "robot_base-Mesh_0_normals",
      "componentType": 5126,
      "count": 302,
      "min": [
        -1,
        -1,
        -1
      ],
      "max": [
        1,
        1,
        1
      ],
      "type": "VEC3",
      "bufferView": 1,
      "byteOffset": 9600
    },
    {
      "name": "robot_base-Mesh_0_indices",
      "componentType": 5123,
      "count": 636,
      "min": [
        0
      ],
      "max": [
        301
      ],
      "type": "SCALAR",
      "bufferView": 3,
      "byteOffset": 3408
    },
    {
      "name": "Cylinder.002-Mesh_0_positions",
      "componentType": 5126,
      "count": 192,
      "min": [
        6.5,
        -16,
        5
      ],
      "max": [
        9.5,
        -2,
        19
      ],
      "type": "VEC3",
      "bufferView": 0,
      "byteOffset": 13224
    },
    {
      "name": "Cylinder.002-Mesh_0_normals",
      "componentType": 5126,
      "count": 192,
      "min": [
        -1,
        -0.9951865673065186,
        -0.9951865673065186
      ],
      "max": [
        1,
        0.9951865673065186,
        0.9951865673065186
      ],
      "type": "VEC3",
      "bufferView": 1,
      "byteOffset": 13224
    },
    {
      "name": "Cylinder.002-Mesh_0_texcoords",
      "componentType": 5126,
      "count": 192,
      "min": [
        0,
        0
      ],
      "max": [
        1,
        0.9900000095367432
      ],
      "type": "VEC2",
      "bufferView": 2,
      "byteOffset": 6400
    },
    {
      "name": "Cylinder.002-Mesh_0_indices",
      "componentType": 5123,
      "count": 372,
      "min": [
        0
      ],
      "max": [
        191
      ],
      "type": "SCALAR",
      "bufferView": 3,
      "byteOffset": 4680
    }
  ],
  "asset": {
    "generator": "obj2gltf",
    "version": "2.0"
  },
  "buffers": [
    {
      "name": "robot",
      "byteLength": 44416,
      "uri": "robot.bin"
    }
  ],
  "bufferViews": [
    {
      "name": "bufferView_0",
      "buffer": 0,
      "byteLength": 15528,
      "byteOffset": 0,
      "byteStride": 12,
      "target": 34962
    },
    {
      "name": "bufferView_1",
      "buffer": 0,
      "byteLength": 15528,
      "byteOffset": 15528,
      "byteStride": 12,
      "target": 34962
    },
    {
      "name": "bufferView_2",
      "buffer": 0,
      "byteLength": 7936,
      "byteOffset": 31056,
      "byteStride": 8,
      "target": 34962
    },
    {
      "name": "bufferView_3",
      "buffer": 0,
      "byteLength": 5424,
      "byteOffset": 38992,
      "target": 34963
    }
  ],
  "materials": [
    {
      "name": "Material.001",
      "pbrMetallicRoughness": {
        "baseColorFactor": [
          0,
          0,
          0,
          1
        ],
        "metallicFactor": 0,
        "roughnessFactor": 0.775
      },
      "emissiveFactor": [
        0,
        0,
        0
      ],
      "alphaMode": "OPAQUE",
      "doubleSided": false
    },
    {
      "name": "Material.002",
      "pbrMetallicRoughness": {
        "baseColorFactor": [
          0,
          0,
          0,
          1
        ],
        "metallicFactor": 0,
        "roughnessFactor": 0.775
      },
      "emissiveFactor": [
        0,
        0,
        0
      ],
      "alphaMode": "OPAQUE",
      "doubleSided": false
    },
    {
      "name": "Part2Material0",
      "pbrMetallicRoughness": {
        "baseColorFactor": [
          0.291954,
          0,
          0.55,
          1
        ],
        "metallicFactor": 0,
        "roughnessFactor": 0.979999995
      },
      "emissiveFactor": [
        0,
        0,
        0
      ],
      "alphaMode": "OPAQUE",
      "doubleSided": false
    },
    {
      "name": "Material.003",
      "pbrMetallicRoughness": {
        "baseColorFactor": [
          0,
          0,
          0,
          1
        ],
        "metallicFactor": 0,
        "roughnessFactor": 0.775
      },
      "emissiveFactor": [
        0,
        0,
        0
      ],
      "alphaMode": "OPAQUE",
      "doubleSided": false
    }
  ],
  "meshes": [
    {
      "name": "Cylinder-Mesh",
      "primitives": [
        {
          "attributes": {
            "POSITION": 0,
            "NORMAL": 1,
            "TEXCOORD_0": 2
          },
          "indices": 3,
          "material": 0,
          "mode": 4
        }
      ]
    },
    {
      "name": "Cylinder.001-Mesh",
      "primitives": [
        {
          "attributes": {
            "POSITION": 4,
            "NORMAL": 5,
            "TEXCOORD_0": 6
          },
          "indices": 7,
          "material": 1,
          "mode": 4
        }
      ]
    },
    {
      "name": "robot_base-Mesh",
      "primitives": [
        {
          "attributes": {
            "POSITION": 8,
            "NORMAL": 9
          },
          "indices": 10,
          "material": 2,
          "mode": 4
        }
      ]
    },
    {
      "name": "Cylinder.002-Mesh",
      "primitives": [
        {
          "attributes": {
            "POSITION": 11,
            "NORMAL": 12,
            "TEXCOORD_0": 13
          },
          "indices": 14,
          "material": 3,
          "mode": 4
        }
      ]
    }
  ],
  "nodes": [
    {
      "name": "Cylinder",
      "mesh": 0
    },
    {
      "name": "Cylinder.001",
      "mesh": 1
    },
    {
      "name": "robot_base",
      "mesh": 2
    },
    {
      "name": "Cylinder.002",
      "mesh": 3
    }
  ],
  "scene": 0,
  "scenes": [
    {
      "nodes": [
        0,
        1,
        2,
        3
      ]
    }
  ]
}
